<mxfile host="app.diagrams.net" modified="2020-12-30T12:52:29.953Z" agent="5.0 (Windows)" etag="LwtDBPk3DvradZW0iKqC" version="14.1.4" type="github" pages="5">
  <diagram id="xpMszpWP5vrc_gCUpFQ1" name="集控站直控">
    <mxGraphModel dx="1422" dy="763" grid="0" gridSize="10" guides="1" tooltips="1" connect="1" arrows="1" fold="1" page="1" pageScale="1" pageWidth="827" pageHeight="1169" background="none" math="0" shadow="1">
      <root>
        <mxCell id="0" />
        <mxCell id="1" parent="0" />
        <mxCell id="OAktlr_rAtMlSzYdnEFI-1" value="&lt;span style=&quot;background-color: rgb(255 , 255 , 255)&quot;&gt;操作控制服务&lt;/span&gt;" style="shape=umlLifeline;perimeter=lifelinePerimeter;whiteSpace=wrap;html=1;container=1;collapsible=0;recursiveResize=0;outlineConnect=0;rounded=1;shadow=0;comic=0;labelBackgroundColor=#99FF99;strokeWidth=1;fontFamily=Verdana;fontSize=12;align=center;fillColor=#d5e8d4;strokeColor=#82b366;" parent="1" vertex="1">
          <mxGeometry x="750" y="60" width="100" height="812" as="geometry" />
        </mxCell>
        <mxCell id="OAktlr_rAtMlSzYdnEFI-2" value="" style="html=1;points=[];perimeter=orthogonalPerimeter;rounded=0;shadow=0;comic=0;labelBackgroundColor=none;strokeWidth=1;fontFamily=Helvetica;fontSize=12;align=center;" parent="OAktlr_rAtMlSzYdnEFI-1" vertex="1">
          <mxGeometry x="45" y="80" width="10" height="732" as="geometry" />
        </mxCell>
        <mxCell id="OAktlr_rAtMlSzYdnEFI-24" value="mqtt：返回遥控结果" style="html=1;verticalAlign=bottom;endArrow=open;dashed=1;endSize=8;fontFamily=Helvetica;entryX=1;entryY=0.81;entryDx=0;entryDy=0;entryPerimeter=0;fontSize=12;" parent="OAktlr_rAtMlSzYdnEFI-1" edge="1">
          <mxGeometry relative="1" as="geometry">
            <mxPoint x="255" y="630.2" as="sourcePoint" />
            <mxPoint x="55" y="630.2" as="targetPoint" />
          </mxGeometry>
        </mxCell>
        <mxCell id="OAktlr_rAtMlSzYdnEFI-3" value="前置（安全Ⅰ区）" style="shape=umlLifeline;perimeter=lifelinePerimeter;whiteSpace=wrap;html=1;container=1;collapsible=0;recursiveResize=0;outlineConnect=0;rounded=1;shadow=0;comic=0;labelBackgroundColor=none;strokeWidth=1;fontFamily=Verdana;fontSize=12;align=center;fillColor=#ffe6cc;strokeColor=#d79b00;" parent="1" vertex="1">
          <mxGeometry x="960" y="60" width="100" height="810" as="geometry" />
        </mxCell>
        <mxCell id="OAktlr_rAtMlSzYdnEFI-4" value="" style="html=1;points=[];perimeter=orthogonalPerimeter;rounded=0;shadow=0;comic=0;labelBackgroundColor=none;strokeWidth=1;fontFamily=Helvetica;fontSize=12;align=center;" parent="OAktlr_rAtMlSzYdnEFI-3" vertex="1">
          <mxGeometry x="45" y="80" width="10" height="730" as="geometry" />
        </mxCell>
        <mxCell id="OAktlr_rAtMlSzYdnEFI-5" value="实时网关机" style="shape=umlLifeline;perimeter=lifelinePerimeter;whiteSpace=wrap;html=1;container=1;collapsible=0;recursiveResize=0;outlineConnect=0;rounded=1;shadow=0;comic=0;labelBackgroundColor=none;strokeWidth=1;fontFamily=Verdana;fontSize=12;align=center;fillColor=#ffe6cc;strokeColor=#d79b00;" parent="1" vertex="1">
          <mxGeometry x="1100" y="60" width="100" height="811" as="geometry" />
        </mxCell>
        <mxCell id="OAktlr_rAtMlSzYdnEFI-12" value="" style="html=1;points=[];perimeter=orthogonalPerimeter;rounded=0;shadow=0;comic=0;labelBackgroundColor=none;strokeWidth=1;fontFamily=Helvetica;fontSize=12;align=center;" parent="OAktlr_rAtMlSzYdnEFI-5" vertex="1">
          <mxGeometry x="45" y="83" width="10" height="727" as="geometry" />
        </mxCell>
        <mxCell id="OAktlr_rAtMlSzYdnEFI-6" value="操作控制服务" style="shape=umlLifeline;perimeter=lifelinePerimeter;whiteSpace=wrap;html=1;container=1;collapsible=0;recursiveResize=0;outlineConnect=0;rounded=1;shadow=0;comic=0;labelBackgroundColor=none;strokeWidth=1;fontFamily=Verdana;fontSize=12;align=center;fillColor=#d5e8d4;strokeColor=#82b366;" parent="1" vertex="1">
          <mxGeometry x="1305.5" y="60" width="100" height="806" as="geometry" />
        </mxCell>
        <mxCell id="OAktlr_rAtMlSzYdnEFI-7" value="" style="html=1;points=[];perimeter=orthogonalPerimeter;rounded=0;shadow=0;comic=0;labelBackgroundColor=none;strokeWidth=1;fontFamily=Helvetica;fontSize=12;align=center;" parent="OAktlr_rAtMlSzYdnEFI-6" vertex="1">
          <mxGeometry x="45" y="88" width="10" height="718" as="geometry" />
        </mxCell>
        <mxCell id="OAktlr_rAtMlSzYdnEFI-10" value="人机界面" style="shape=umlLifeline;perimeter=lifelinePerimeter;whiteSpace=wrap;html=1;container=1;collapsible=0;recursiveResize=0;outlineConnect=0;rounded=1;shadow=0;comic=0;labelBackgroundColor=none;strokeWidth=1;fontFamily=Verdana;fontSize=12;align=center;fillColor=#ffe6cc;strokeColor=#d79b00;" parent="1" vertex="1">
          <mxGeometry x="540" y="60" width="100" height="807" as="geometry" />
        </mxCell>
        <mxCell id="OAktlr_rAtMlSzYdnEFI-11" value="" style="html=1;points=[];perimeter=orthogonalPerimeter;rounded=0;shadow=0;comic=0;labelBackgroundColor=none;strokeWidth=1;fontFamily=Helvetica;fontSize=12;align=center;" parent="OAktlr_rAtMlSzYdnEFI-10" vertex="1">
          <mxGeometry x="45" y="80" width="10" height="724" as="geometry" />
        </mxCell>
        <mxCell id="OAktlr_rAtMlSzYdnEFI-13" value="104：请求遥控" style="html=1;verticalAlign=bottom;endArrow=block;labelBackgroundColor=none;fontFamily=Helvetica;fontSize=12;edgeStyle=elbowEdgeStyle;elbow=vertical;" parent="1" edge="1">
          <mxGeometry relative="1" as="geometry">
            <mxPoint x="1015" y="327" as="sourcePoint" />
            <Array as="points">
              <mxPoint x="1020" y="327" />
            </Array>
            <mxPoint x="1145" y="327" as="targetPoint" />
          </mxGeometry>
        </mxCell>
        <mxCell id="OAktlr_rAtMlSzYdnEFI-14" value="rest：请求遥控" style="html=1;verticalAlign=bottom;endArrow=block;labelBackgroundColor=none;fontFamily=Helvetica;fontSize=12;edgeStyle=elbowEdgeStyle;elbow=vertical;" parent="1" edge="1">
          <mxGeometry relative="1" as="geometry">
            <mxPoint x="597" y="220" as="sourcePoint" />
            <mxPoint x="796.5" y="220" as="targetPoint" />
          </mxGeometry>
        </mxCell>
        <mxCell id="OAktlr_rAtMlSzYdnEFI-15" value="&lt;div style=&quot;text-align: justify&quot;&gt;&lt;span&gt;&lt;font style=&quot;font-size: 18px&quot;&gt;调控/调度/集控&lt;/font&gt;&lt;/span&gt;&lt;/div&gt;" style="shape=note;whiteSpace=wrap;html=1;size=14;verticalAlign=top;align=center;spacingTop=-6;rounded=0;shadow=0;comic=0;labelBackgroundColor=none;strokeWidth=1;fontFamily=Verdana;fontSize=12;fillColor=#f5f5f5;strokeColor=#666666;fontColor=#333333;" parent="1" vertex="1">
          <mxGeometry x="540" y="20" width="520" height="25" as="geometry" />
        </mxCell>
        <mxCell id="OAktlr_rAtMlSzYdnEFI-16" value="&lt;font style=&quot;font-size: 18px&quot;&gt;变电站&lt;/font&gt;" style="shape=note;whiteSpace=wrap;html=1;size=14;verticalAlign=top;align=center;spacingTop=-6;rounded=0;shadow=0;comic=0;labelBackgroundColor=none;strokeWidth=1;fontFamily=Verdana;fontSize=12;fillColor=#f5f5f5;strokeColor=#666666;fontColor=#333333;" parent="1" vertex="1">
          <mxGeometry x="1100" y="20" width="705" height="25" as="geometry" />
        </mxCell>
        <mxCell id="OAktlr_rAtMlSzYdnEFI-17" value="mqtt：请求遥控" style="html=1;verticalAlign=bottom;endArrow=block;fontFamily=Helvetica;fontSize=12;" parent="1" edge="1">
          <mxGeometry width="80" relative="1" as="geometry">
            <mxPoint x="1155.5" y="359" as="sourcePoint" />
            <mxPoint x="1346" y="359" as="targetPoint" />
          </mxGeometry>
        </mxCell>
        <mxCell id="OAktlr_rAtMlSzYdnEFI-25" value="rest：返回遥控结果" style="html=1;verticalAlign=bottom;endArrow=open;dashed=1;endSize=8;fontFamily=Helvetica;entryX=1.1;entryY=0.98;entryDx=0;entryDy=0;entryPerimeter=0;fontSize=12;" parent="1" edge="1">
          <mxGeometry relative="1" as="geometry">
            <mxPoint x="794" y="781" as="sourcePoint" />
            <mxPoint x="595" y="781" as="targetPoint" />
          </mxGeometry>
        </mxCell>
        <mxCell id="OAktlr_rAtMlSzYdnEFI-31" value="104：返回遥控结果" style="html=1;verticalAlign=bottom;endArrow=open;dashed=1;endSize=8;fontFamily=Helvetica;entryX=1.2;entryY=0.9;entryDx=0;entryDy=0;entryPerimeter=0;fontSize=12;" parent="1" edge="1">
          <mxGeometry x="0.0156" relative="1" as="geometry">
            <mxPoint x="1143" y="652" as="sourcePoint" />
            <mxPoint x="1015" y="652" as="targetPoint" />
            <mxPoint as="offset" />
          </mxGeometry>
        </mxCell>
        <mxCell id="OAktlr_rAtMlSzYdnEFI-32" value="mqtt：返回遥控结果" style="html=1;verticalAlign=bottom;endArrow=open;dashed=1;endSize=8;fontFamily=Helvetica;entryX=1.2;entryY=0.9;entryDx=0;entryDy=0;entryPerimeter=0;fontSize=12;" parent="1" edge="1">
          <mxGeometry x="0.0156" relative="1" as="geometry">
            <mxPoint x="1343" y="619" as="sourcePoint" />
            <mxPoint x="1154" y="619" as="targetPoint" />
            <mxPoint as="offset" />
          </mxGeometry>
        </mxCell>
        <mxCell id="OAktlr_rAtMlSzYdnEFI-34" value="mqtt：请求遥控" style="html=1;verticalAlign=bottom;endArrow=block;labelBackgroundColor=none;fontFamily=Helvetica;fontSize=12;edgeStyle=elbowEdgeStyle;elbow=vertical;" parent="1" edge="1">
          <mxGeometry x="0.003" relative="1" as="geometry">
            <mxPoint x="807" y="277" as="sourcePoint" />
            <mxPoint x="1006.5000000000005" y="277" as="targetPoint" />
            <Array as="points">
              <mxPoint x="917" y="277" />
              <mxPoint x="757" y="327" />
              <mxPoint x="747" y="327" />
            </Array>
            <mxPoint as="offset" />
          </mxGeometry>
        </mxCell>
        <mxCell id="OAktlr_rAtMlSzYdnEFI-40" value="根据解闭锁状态、标识牌操作判断能否遥控" style="html=1;verticalAlign=bottom;endArrow=block;labelBackgroundColor=none;fontFamily=Verdana;fontSize=12;elbow=vertical;edgeStyle=orthogonalEdgeStyle;curved=1;entryX=1;entryY=0.286;entryPerimeter=0;exitX=1.038;exitY=0.345;exitPerimeter=0;" parent="1" edge="1">
          <mxGeometry relative="1" as="geometry">
            <mxPoint x="590.0000000000001" y="159.9999999999999" as="sourcePoint" />
            <mxPoint x="594.62" y="197.91999999999996" as="targetPoint" />
            <Array as="points">
              <mxPoint x="644.62" y="159.89999999999998" />
              <mxPoint x="644.62" y="197.89999999999998" />
            </Array>
          </mxGeometry>
        </mxCell>
        <mxCell id="OAktlr_rAtMlSzYdnEFI-41" value="判断责任区是否存在其它遥控，若无加锁" style="html=1;verticalAlign=bottom;endArrow=block;labelBackgroundColor=none;fontFamily=Verdana;fontSize=12;elbow=vertical;edgeStyle=orthogonalEdgeStyle;curved=1;entryX=1;entryY=0.286;entryPerimeter=0;exitX=1.038;exitY=0.345;exitPerimeter=0;" parent="1" edge="1">
          <mxGeometry x="0.0177" y="25" relative="1" as="geometry">
            <mxPoint x="806" y="222.07999999999987" as="sourcePoint" />
            <mxPoint x="810.6199999999999" y="259.99999999999994" as="targetPoint" />
            <Array as="points">
              <mxPoint x="860.62" y="221.97999999999996" />
              <mxPoint x="860.62" y="259.97999999999996" />
            </Array>
            <mxPoint as="offset" />
          </mxGeometry>
        </mxCell>
        <mxCell id="OAktlr_rAtMlSzYdnEFI-42" value="前置（安全Ⅰ区）" style="shape=umlLifeline;perimeter=lifelinePerimeter;whiteSpace=wrap;html=1;container=1;collapsible=0;recursiveResize=0;outlineConnect=0;rounded=1;shadow=0;comic=0;labelBackgroundColor=none;strokeWidth=1;fontFamily=Verdana;fontSize=12;align=center;fillColor=#ffe6cc;strokeColor=#d79b00;" parent="1" vertex="1">
          <mxGeometry x="1505" y="60" width="100" height="806" as="geometry" />
        </mxCell>
        <mxCell id="OAktlr_rAtMlSzYdnEFI-43" value="" style="html=1;points=[];perimeter=orthogonalPerimeter;rounded=0;shadow=0;comic=0;labelBackgroundColor=none;strokeWidth=1;fontFamily=Helvetica;fontSize=12;align=center;" parent="OAktlr_rAtMlSzYdnEFI-42" vertex="1">
          <mxGeometry x="45" y="80" width="10" height="726" as="geometry" />
        </mxCell>
        <mxCell id="OAktlr_rAtMlSzYdnEFI-44" value="mqtt：返回遥控结果" style="html=1;verticalAlign=bottom;endArrow=open;dashed=1;endSize=8;fontFamily=Helvetica;fontSize=12;" parent="1" source="OAktlr_rAtMlSzYdnEFI-42" edge="1">
          <mxGeometry x="0.0156" relative="1" as="geometry">
            <mxPoint x="1530" y="560" as="sourcePoint" />
            <mxPoint x="1359" y="560" as="targetPoint" />
            <mxPoint as="offset" />
          </mxGeometry>
        </mxCell>
        <mxCell id="OAktlr_rAtMlSzYdnEFI-45" value="判断所遥控的站是否存在其它遥控，若无加锁" style="html=1;verticalAlign=bottom;endArrow=block;labelBackgroundColor=none;fontFamily=Verdana;fontSize=12;elbow=vertical;edgeStyle=orthogonalEdgeStyle;curved=1;entryX=1;entryY=0.286;entryPerimeter=0;exitX=1.038;exitY=0.345;exitPerimeter=0;" parent="1" edge="1">
          <mxGeometry x="0.0177" y="25" relative="1" as="geometry">
            <mxPoint x="1363" y="359.99999999999994" as="sourcePoint" />
            <mxPoint x="1367.62" y="397.92" as="targetPoint" />
            <Array as="points">
              <mxPoint x="1417.62" y="359.9" />
              <mxPoint x="1417.62" y="397.9" />
            </Array>
            <mxPoint as="offset" />
          </mxGeometry>
        </mxCell>
        <mxCell id="OAktlr_rAtMlSzYdnEFI-46" value="mqtt：请求遥控" style="html=1;verticalAlign=bottom;endArrow=block;fontFamily=Helvetica;fontSize=12;" parent="1" edge="1">
          <mxGeometry width="80" relative="1" as="geometry">
            <mxPoint x="1364" y="432" as="sourcePoint" />
            <mxPoint x="1554.5" y="432" as="targetPoint" />
          </mxGeometry>
        </mxCell>
        <mxCell id="OAktlr_rAtMlSzYdnEFI-47" value="设备" style="shape=umlLifeline;perimeter=lifelinePerimeter;whiteSpace=wrap;html=1;container=1;collapsible=0;recursiveResize=0;outlineConnect=0;rounded=1;shadow=0;comic=0;labelBackgroundColor=none;strokeWidth=1;fontFamily=Verdana;fontSize=12;align=center;fillColor=#ffe6cc;strokeColor=#d79b00;" parent="1" vertex="1">
          <mxGeometry x="1708" y="60" width="100" height="802" as="geometry" />
        </mxCell>
        <mxCell id="OAktlr_rAtMlSzYdnEFI-48" value="" style="html=1;points=[];perimeter=orthogonalPerimeter;rounded=0;shadow=0;comic=0;labelBackgroundColor=none;strokeWidth=1;fontFamily=Helvetica;fontSize=12;align=center;" parent="OAktlr_rAtMlSzYdnEFI-47" vertex="1">
          <mxGeometry x="45" y="80" width="10" height="722" as="geometry" />
        </mxCell>
        <mxCell id="OAktlr_rAtMlSzYdnEFI-49" value="？协议：请求遥控" style="html=1;verticalAlign=bottom;endArrow=block;fontFamily=Helvetica;fontSize=12;" parent="1" edge="1">
          <mxGeometry width="80" relative="1" as="geometry">
            <mxPoint x="1563" y="464" as="sourcePoint" />
            <mxPoint x="1753.5" y="464" as="targetPoint" />
          </mxGeometry>
        </mxCell>
        <mxCell id="OAktlr_rAtMlSzYdnEFI-50" value="？协议：返回遥控结果" style="html=1;verticalAlign=bottom;endArrow=open;dashed=1;endSize=8;fontFamily=Helvetica;fontSize=12;" parent="1" source="OAktlr_rAtMlSzYdnEFI-47" edge="1">
          <mxGeometry x="0.0156" relative="1" as="geometry">
            <mxPoint x="1730" y="521" as="sourcePoint" />
            <mxPoint x="1559" y="521" as="targetPoint" />
            <mxPoint as="offset" />
          </mxGeometry>
        </mxCell>
        <mxCell id="OAktlr_rAtMlSzYdnEFI-51" value="解除责任区的锁" style="html=1;verticalAlign=bottom;endArrow=block;labelBackgroundColor=none;fontFamily=Verdana;fontSize=12;elbow=vertical;edgeStyle=orthogonalEdgeStyle;curved=1;entryX=1;entryY=0.286;entryPerimeter=0;exitX=1.038;exitY=0.345;exitPerimeter=0;" parent="1" edge="1">
          <mxGeometry x="0.0177" y="25" relative="1" as="geometry">
            <mxPoint x="805" y="719" as="sourcePoint" />
            <mxPoint x="809.6199999999999" y="756.9200000000001" as="targetPoint" />
            <Array as="points">
              <mxPoint x="859.62" y="718.9" />
              <mxPoint x="859.62" y="756.9" />
            </Array>
            <mxPoint as="offset" />
          </mxGeometry>
        </mxCell>
        <mxCell id="OAktlr_rAtMlSzYdnEFI-53" value="解除所遥控站的锁" style="html=1;verticalAlign=bottom;endArrow=block;labelBackgroundColor=none;fontFamily=Verdana;fontSize=12;elbow=vertical;edgeStyle=orthogonalEdgeStyle;curved=1;entryX=1;entryY=0.286;entryPerimeter=0;exitX=1.038;exitY=0.345;exitPerimeter=0;" parent="1" edge="1">
          <mxGeometry x="0.0177" y="25" relative="1" as="geometry">
            <mxPoint x="1360" y="573" as="sourcePoint" />
            <mxPoint x="1364.62" y="610.9200000000001" as="targetPoint" />
            <Array as="points">
              <mxPoint x="1414.62" y="572.9" />
              <mxPoint x="1414.62" y="610.9" />
            </Array>
            <mxPoint as="offset" />
          </mxGeometry>
        </mxCell>
      </root>
    </mxGraphModel>
  </diagram>
  <diagram id="a6BCL58FIUwq8ESVcJmH" name="集控站遥控选择">
    <mxGraphModel dx="1422" dy="763" grid="1" gridSize="10" guides="1" tooltips="1" connect="1" arrows="1" fold="1" page="1" pageScale="1" pageWidth="827" pageHeight="1169" math="0" shadow="0">
      <root>
        <mxCell id="TsInHWMdMIwJDS8TREMW-0" />
        <mxCell id="TsInHWMdMIwJDS8TREMW-1" parent="TsInHWMdMIwJDS8TREMW-0" />
        <mxCell id="5RTT0yzJ6uIvpem1gimg-0" value="&lt;span style=&quot;background-color: rgb(255 , 255 , 255)&quot;&gt;操作控制服务&lt;/span&gt;" style="shape=umlLifeline;perimeter=lifelinePerimeter;whiteSpace=wrap;html=1;container=1;collapsible=0;recursiveResize=0;outlineConnect=0;rounded=1;shadow=0;comic=0;labelBackgroundColor=#99FF99;strokeWidth=1;fontFamily=Verdana;fontSize=12;align=center;fillColor=#d5e8d4;strokeColor=#82b366;" vertex="1" parent="TsInHWMdMIwJDS8TREMW-1">
          <mxGeometry x="750" y="60" width="100" height="812" as="geometry" />
        </mxCell>
        <mxCell id="5RTT0yzJ6uIvpem1gimg-1" value="" style="html=1;points=[];perimeter=orthogonalPerimeter;rounded=0;shadow=0;comic=0;labelBackgroundColor=none;strokeWidth=1;fontFamily=Helvetica;fontSize=12;align=center;" vertex="1" parent="5RTT0yzJ6uIvpem1gimg-0">
          <mxGeometry x="45" y="80" width="10" height="732" as="geometry" />
        </mxCell>
        <mxCell id="5RTT0yzJ6uIvpem1gimg-2" value="mqtt：返回遥控选择结果" style="html=1;verticalAlign=bottom;endArrow=open;dashed=1;endSize=8;fontFamily=Helvetica;entryX=1;entryY=0.81;entryDx=0;entryDy=0;entryPerimeter=0;fontSize=12;" edge="1" parent="5RTT0yzJ6uIvpem1gimg-0">
          <mxGeometry relative="1" as="geometry">
            <mxPoint x="255" y="630.2" as="sourcePoint" />
            <mxPoint x="55" y="630.2" as="targetPoint" />
          </mxGeometry>
        </mxCell>
        <mxCell id="5RTT0yzJ6uIvpem1gimg-3" value="前置（安全Ⅰ区）" style="shape=umlLifeline;perimeter=lifelinePerimeter;whiteSpace=wrap;html=1;container=1;collapsible=0;recursiveResize=0;outlineConnect=0;rounded=1;shadow=0;comic=0;labelBackgroundColor=none;strokeWidth=1;fontFamily=Verdana;fontSize=12;align=center;fillColor=#ffe6cc;strokeColor=#d79b00;" vertex="1" parent="TsInHWMdMIwJDS8TREMW-1">
          <mxGeometry x="960" y="60" width="100" height="810" as="geometry" />
        </mxCell>
        <mxCell id="5RTT0yzJ6uIvpem1gimg-4" value="" style="html=1;points=[];perimeter=orthogonalPerimeter;rounded=0;shadow=0;comic=0;labelBackgroundColor=none;strokeWidth=1;fontFamily=Helvetica;fontSize=12;align=center;" vertex="1" parent="5RTT0yzJ6uIvpem1gimg-3">
          <mxGeometry x="45" y="80" width="10" height="730" as="geometry" />
        </mxCell>
        <mxCell id="5RTT0yzJ6uIvpem1gimg-5" value="实时网关机" style="shape=umlLifeline;perimeter=lifelinePerimeter;whiteSpace=wrap;html=1;container=1;collapsible=0;recursiveResize=0;outlineConnect=0;rounded=1;shadow=0;comic=0;labelBackgroundColor=none;strokeWidth=1;fontFamily=Verdana;fontSize=12;align=center;fillColor=#ffe6cc;strokeColor=#d79b00;" vertex="1" parent="TsInHWMdMIwJDS8TREMW-1">
          <mxGeometry x="1100" y="60" width="100" height="811" as="geometry" />
        </mxCell>
        <mxCell id="5RTT0yzJ6uIvpem1gimg-6" value="" style="html=1;points=[];perimeter=orthogonalPerimeter;rounded=0;shadow=0;comic=0;labelBackgroundColor=none;strokeWidth=1;fontFamily=Helvetica;fontSize=12;align=center;" vertex="1" parent="5RTT0yzJ6uIvpem1gimg-5">
          <mxGeometry x="45" y="83" width="10" height="727" as="geometry" />
        </mxCell>
        <mxCell id="5RTT0yzJ6uIvpem1gimg-7" value="操作控制服务" style="shape=umlLifeline;perimeter=lifelinePerimeter;whiteSpace=wrap;html=1;container=1;collapsible=0;recursiveResize=0;outlineConnect=0;rounded=1;shadow=0;comic=0;labelBackgroundColor=none;strokeWidth=1;fontFamily=Verdana;fontSize=12;align=center;fillColor=#d5e8d4;strokeColor=#82b366;" vertex="1" parent="TsInHWMdMIwJDS8TREMW-1">
          <mxGeometry x="1305.5" y="60" width="100" height="806" as="geometry" />
        </mxCell>
        <mxCell id="5RTT0yzJ6uIvpem1gimg-8" value="" style="html=1;points=[];perimeter=orthogonalPerimeter;rounded=0;shadow=0;comic=0;labelBackgroundColor=none;strokeWidth=1;fontFamily=Helvetica;fontSize=12;align=center;" vertex="1" parent="5RTT0yzJ6uIvpem1gimg-7">
          <mxGeometry x="45" y="88" width="10" height="718" as="geometry" />
        </mxCell>
        <mxCell id="5RTT0yzJ6uIvpem1gimg-9" value="人机界面" style="shape=umlLifeline;perimeter=lifelinePerimeter;whiteSpace=wrap;html=1;container=1;collapsible=0;recursiveResize=0;outlineConnect=0;rounded=1;shadow=0;comic=0;labelBackgroundColor=none;strokeWidth=1;fontFamily=Verdana;fontSize=12;align=center;fillColor=#ffe6cc;strokeColor=#d79b00;" vertex="1" parent="TsInHWMdMIwJDS8TREMW-1">
          <mxGeometry x="540" y="60" width="100" height="807" as="geometry" />
        </mxCell>
        <mxCell id="5RTT0yzJ6uIvpem1gimg-10" value="" style="html=1;points=[];perimeter=orthogonalPerimeter;rounded=0;shadow=0;comic=0;labelBackgroundColor=none;strokeWidth=1;fontFamily=Helvetica;fontSize=12;align=center;" vertex="1" parent="5RTT0yzJ6uIvpem1gimg-9">
          <mxGeometry x="45" y="80" width="10" height="724" as="geometry" />
        </mxCell>
        <mxCell id="5RTT0yzJ6uIvpem1gimg-11" value="104：请求遥控选择" style="html=1;verticalAlign=bottom;endArrow=block;labelBackgroundColor=none;fontFamily=Helvetica;fontSize=12;edgeStyle=elbowEdgeStyle;elbow=vertical;" edge="1" parent="TsInHWMdMIwJDS8TREMW-1">
          <mxGeometry relative="1" as="geometry">
            <mxPoint x="1015" y="327" as="sourcePoint" />
            <Array as="points">
              <mxPoint x="1020" y="327" />
            </Array>
            <mxPoint x="1145" y="327" as="targetPoint" />
          </mxGeometry>
        </mxCell>
        <mxCell id="5RTT0yzJ6uIvpem1gimg-12" value="rest：请求遥控选择" style="html=1;verticalAlign=bottom;endArrow=block;labelBackgroundColor=none;fontFamily=Helvetica;fontSize=12;edgeStyle=elbowEdgeStyle;elbow=vertical;" edge="1" parent="TsInHWMdMIwJDS8TREMW-1">
          <mxGeometry relative="1" as="geometry">
            <mxPoint x="597" y="220" as="sourcePoint" />
            <mxPoint x="796.5" y="220" as="targetPoint" />
          </mxGeometry>
        </mxCell>
        <mxCell id="5RTT0yzJ6uIvpem1gimg-13" value="&lt;div style=&quot;text-align: justify&quot;&gt;&lt;span&gt;&lt;font style=&quot;font-size: 18px&quot;&gt;调控/调度/集控&lt;/font&gt;&lt;/span&gt;&lt;/div&gt;" style="shape=note;whiteSpace=wrap;html=1;size=14;verticalAlign=top;align=center;spacingTop=-6;rounded=0;shadow=0;comic=0;labelBackgroundColor=none;strokeWidth=1;fontFamily=Verdana;fontSize=12;fillColor=#f5f5f5;strokeColor=#666666;fontColor=#333333;" vertex="1" parent="TsInHWMdMIwJDS8TREMW-1">
          <mxGeometry x="540" y="20" width="520" height="25" as="geometry" />
        </mxCell>
        <mxCell id="5RTT0yzJ6uIvpem1gimg-14" value="&lt;font style=&quot;font-size: 18px&quot;&gt;变电站&lt;/font&gt;" style="shape=note;whiteSpace=wrap;html=1;size=14;verticalAlign=top;align=center;spacingTop=-6;rounded=0;shadow=0;comic=0;labelBackgroundColor=none;strokeWidth=1;fontFamily=Verdana;fontSize=12;fillColor=#f5f5f5;strokeColor=#666666;fontColor=#333333;" vertex="1" parent="TsInHWMdMIwJDS8TREMW-1">
          <mxGeometry x="1100" y="20" width="705" height="25" as="geometry" />
        </mxCell>
        <mxCell id="5RTT0yzJ6uIvpem1gimg-15" value="mqtt：请求遥控选择" style="html=1;verticalAlign=bottom;endArrow=block;fontFamily=Helvetica;fontSize=12;" edge="1" parent="TsInHWMdMIwJDS8TREMW-1">
          <mxGeometry width="80" relative="1" as="geometry">
            <mxPoint x="1155.5" y="359" as="sourcePoint" />
            <mxPoint x="1346" y="359" as="targetPoint" />
          </mxGeometry>
        </mxCell>
        <mxCell id="5RTT0yzJ6uIvpem1gimg-16" value="rest：返回遥控选择结果" style="html=1;verticalAlign=bottom;endArrow=open;dashed=1;endSize=8;fontFamily=Helvetica;entryX=1.1;entryY=0.98;entryDx=0;entryDy=0;entryPerimeter=0;fontSize=12;" edge="1" parent="TsInHWMdMIwJDS8TREMW-1">
          <mxGeometry relative="1" as="geometry">
            <mxPoint x="794" y="746" as="sourcePoint" />
            <mxPoint x="595" y="746" as="targetPoint" />
          </mxGeometry>
        </mxCell>
        <mxCell id="5RTT0yzJ6uIvpem1gimg-17" value="104：返回遥控选择结果" style="html=1;verticalAlign=bottom;endArrow=open;dashed=1;endSize=8;fontFamily=Helvetica;entryX=1.2;entryY=0.9;entryDx=0;entryDy=0;entryPerimeter=0;fontSize=12;" edge="1" parent="TsInHWMdMIwJDS8TREMW-1">
          <mxGeometry x="0.0156" relative="1" as="geometry">
            <mxPoint x="1143" y="652" as="sourcePoint" />
            <mxPoint x="1015" y="652" as="targetPoint" />
            <mxPoint as="offset" />
          </mxGeometry>
        </mxCell>
        <mxCell id="5RTT0yzJ6uIvpem1gimg-18" value="mqtt：返回遥控选择结果" style="html=1;verticalAlign=bottom;endArrow=open;dashed=1;endSize=8;fontFamily=Helvetica;entryX=1.2;entryY=0.9;entryDx=0;entryDy=0;entryPerimeter=0;fontSize=12;" edge="1" parent="TsInHWMdMIwJDS8TREMW-1">
          <mxGeometry x="0.0156" relative="1" as="geometry">
            <mxPoint x="1343" y="619" as="sourcePoint" />
            <mxPoint x="1154" y="619" as="targetPoint" />
            <mxPoint as="offset" />
          </mxGeometry>
        </mxCell>
        <mxCell id="5RTT0yzJ6uIvpem1gimg-19" value="mqtt：请求遥控选择" style="html=1;verticalAlign=bottom;endArrow=block;labelBackgroundColor=none;fontFamily=Helvetica;fontSize=12;edgeStyle=elbowEdgeStyle;elbow=vertical;" edge="1" parent="TsInHWMdMIwJDS8TREMW-1">
          <mxGeometry x="0.003" relative="1" as="geometry">
            <mxPoint x="807" y="277" as="sourcePoint" />
            <mxPoint x="1006.5000000000005" y="277" as="targetPoint" />
            <Array as="points">
              <mxPoint x="917" y="277" />
              <mxPoint x="757" y="327" />
              <mxPoint x="747" y="327" />
            </Array>
            <mxPoint as="offset" />
          </mxGeometry>
        </mxCell>
        <mxCell id="5RTT0yzJ6uIvpem1gimg-20" value="根据解闭锁状态、标识牌操作判断能否遥控" style="html=1;verticalAlign=bottom;endArrow=block;labelBackgroundColor=none;fontFamily=Verdana;fontSize=12;elbow=vertical;edgeStyle=orthogonalEdgeStyle;curved=1;entryX=1;entryY=0.286;entryPerimeter=0;exitX=1.038;exitY=0.345;exitPerimeter=0;" edge="1" parent="TsInHWMdMIwJDS8TREMW-1">
          <mxGeometry relative="1" as="geometry">
            <mxPoint x="590" y="159.9999999999999" as="sourcePoint" />
            <mxPoint x="594.6199999999999" y="197.91999999999996" as="targetPoint" />
            <Array as="points">
              <mxPoint x="644.62" y="159.89999999999998" />
              <mxPoint x="644.62" y="197.89999999999998" />
            </Array>
          </mxGeometry>
        </mxCell>
        <mxCell id="5RTT0yzJ6uIvpem1gimg-21" value="判断责任区是否存在其它遥控" style="html=1;verticalAlign=bottom;endArrow=block;labelBackgroundColor=none;fontFamily=Verdana;fontSize=12;elbow=vertical;edgeStyle=orthogonalEdgeStyle;curved=1;entryX=1;entryY=0.286;entryPerimeter=0;exitX=1.038;exitY=0.345;exitPerimeter=0;" edge="1" parent="TsInHWMdMIwJDS8TREMW-1">
          <mxGeometry x="0.0177" y="25" relative="1" as="geometry">
            <mxPoint x="806" y="222.07999999999993" as="sourcePoint" />
            <mxPoint x="810.6199999999999" y="260" as="targetPoint" />
            <Array as="points">
              <mxPoint x="860.62" y="221.97999999999996" />
              <mxPoint x="860.62" y="259.97999999999996" />
            </Array>
            <mxPoint as="offset" />
          </mxGeometry>
        </mxCell>
        <mxCell id="5RTT0yzJ6uIvpem1gimg-22" value="前置（安全Ⅰ区）" style="shape=umlLifeline;perimeter=lifelinePerimeter;whiteSpace=wrap;html=1;container=1;collapsible=0;recursiveResize=0;outlineConnect=0;rounded=1;shadow=0;comic=0;labelBackgroundColor=none;strokeWidth=1;fontFamily=Verdana;fontSize=12;align=center;fillColor=#ffe6cc;strokeColor=#d79b00;" vertex="1" parent="TsInHWMdMIwJDS8TREMW-1">
          <mxGeometry x="1505" y="60" width="100" height="806" as="geometry" />
        </mxCell>
        <mxCell id="5RTT0yzJ6uIvpem1gimg-23" value="" style="html=1;points=[];perimeter=orthogonalPerimeter;rounded=0;shadow=0;comic=0;labelBackgroundColor=none;strokeWidth=1;fontFamily=Helvetica;fontSize=12;align=center;" vertex="1" parent="5RTT0yzJ6uIvpem1gimg-22">
          <mxGeometry x="45" y="80" width="10" height="726" as="geometry" />
        </mxCell>
        <mxCell id="5RTT0yzJ6uIvpem1gimg-24" value="mqtt：返回遥控选择结果" style="html=1;verticalAlign=bottom;endArrow=open;dashed=1;endSize=8;fontFamily=Helvetica;fontSize=12;" edge="1" parent="TsInHWMdMIwJDS8TREMW-1" source="5RTT0yzJ6uIvpem1gimg-22">
          <mxGeometry x="0.0156" relative="1" as="geometry">
            <mxPoint x="1530" y="560" as="sourcePoint" />
            <mxPoint x="1359" y="560" as="targetPoint" />
            <mxPoint as="offset" />
          </mxGeometry>
        </mxCell>
        <mxCell id="5RTT0yzJ6uIvpem1gimg-25" value="判断所遥控的站是否存在其它遥控" style="html=1;verticalAlign=bottom;endArrow=block;labelBackgroundColor=none;fontFamily=Verdana;fontSize=12;elbow=vertical;edgeStyle=orthogonalEdgeStyle;curved=1;entryX=1;entryY=0.286;entryPerimeter=0;exitX=1.038;exitY=0.345;exitPerimeter=0;" edge="1" parent="TsInHWMdMIwJDS8TREMW-1">
          <mxGeometry x="0.0177" y="25" relative="1" as="geometry">
            <mxPoint x="1363" y="360" as="sourcePoint" />
            <mxPoint x="1367.62" y="397.9200000000001" as="targetPoint" />
            <Array as="points">
              <mxPoint x="1417.62" y="359.9" />
              <mxPoint x="1417.62" y="397.9" />
            </Array>
            <mxPoint as="offset" />
          </mxGeometry>
        </mxCell>
        <mxCell id="5RTT0yzJ6uIvpem1gimg-26" value="mqtt：请求遥控选择" style="html=1;verticalAlign=bottom;endArrow=block;fontFamily=Helvetica;fontSize=12;" edge="1" parent="TsInHWMdMIwJDS8TREMW-1">
          <mxGeometry width="80" relative="1" as="geometry">
            <mxPoint x="1364" y="432" as="sourcePoint" />
            <mxPoint x="1554.5" y="432" as="targetPoint" />
          </mxGeometry>
        </mxCell>
        <mxCell id="5RTT0yzJ6uIvpem1gimg-27" value="设备" style="shape=umlLifeline;perimeter=lifelinePerimeter;whiteSpace=wrap;html=1;container=1;collapsible=0;recursiveResize=0;outlineConnect=0;rounded=1;shadow=0;comic=0;labelBackgroundColor=none;strokeWidth=1;fontFamily=Verdana;fontSize=12;align=center;fillColor=#ffe6cc;strokeColor=#d79b00;" vertex="1" parent="TsInHWMdMIwJDS8TREMW-1">
          <mxGeometry x="1708" y="60" width="100" height="802" as="geometry" />
        </mxCell>
        <mxCell id="5RTT0yzJ6uIvpem1gimg-28" value="" style="html=1;points=[];perimeter=orthogonalPerimeter;rounded=0;shadow=0;comic=0;labelBackgroundColor=none;strokeWidth=1;fontFamily=Helvetica;fontSize=12;align=center;" vertex="1" parent="5RTT0yzJ6uIvpem1gimg-27">
          <mxGeometry x="45" y="80" width="10" height="722" as="geometry" />
        </mxCell>
        <mxCell id="5RTT0yzJ6uIvpem1gimg-29" value="？协议：请求遥控选择" style="html=1;verticalAlign=bottom;endArrow=block;fontFamily=Helvetica;fontSize=12;" edge="1" parent="TsInHWMdMIwJDS8TREMW-1">
          <mxGeometry width="80" relative="1" as="geometry">
            <mxPoint x="1563" y="464" as="sourcePoint" />
            <mxPoint x="1753.5" y="464" as="targetPoint" />
          </mxGeometry>
        </mxCell>
        <mxCell id="5RTT0yzJ6uIvpem1gimg-30" value="？协议：返回遥控选择结果" style="html=1;verticalAlign=bottom;endArrow=open;dashed=1;endSize=8;fontFamily=Helvetica;fontSize=12;" edge="1" parent="TsInHWMdMIwJDS8TREMW-1" source="5RTT0yzJ6uIvpem1gimg-27">
          <mxGeometry x="0.0156" relative="1" as="geometry">
            <mxPoint x="1730" y="521" as="sourcePoint" />
            <mxPoint x="1559" y="521" as="targetPoint" />
            <mxPoint as="offset" />
          </mxGeometry>
        </mxCell>
        <mxCell id="5RTT0yzJ6uIvpem1gimg-33" value="选择操作通过加锁" style="html=1;verticalAlign=bottom;endArrow=block;labelBackgroundColor=none;fontFamily=Verdana;fontSize=12;elbow=vertical;edgeStyle=orthogonalEdgeStyle;curved=1;entryX=1;entryY=0.286;entryPerimeter=0;exitX=1.038;exitY=0.345;exitPerimeter=0;" edge="1" parent="TsInHWMdMIwJDS8TREMW-1">
          <mxGeometry x="0.0177" y="25" relative="1" as="geometry">
            <mxPoint x="1363" y="579" as="sourcePoint" />
            <mxPoint x="1367.62" y="616.9200000000001" as="targetPoint" />
            <Array as="points">
              <mxPoint x="1417.62" y="578.9" />
              <mxPoint x="1417.62" y="616.9" />
            </Array>
            <mxPoint as="offset" />
          </mxGeometry>
        </mxCell>
        <mxCell id="5RTT0yzJ6uIvpem1gimg-35" value="选择操作通过加锁" style="html=1;verticalAlign=bottom;endArrow=block;labelBackgroundColor=none;fontFamily=Verdana;fontSize=12;elbow=vertical;edgeStyle=orthogonalEdgeStyle;curved=1;entryX=1;entryY=0.286;entryPerimeter=0;exitX=1.038;exitY=0.345;exitPerimeter=0;" edge="1" parent="TsInHWMdMIwJDS8TREMW-1">
          <mxGeometry x="0.0177" y="25" relative="1" as="geometry">
            <mxPoint x="810" y="700" as="sourcePoint" />
            <mxPoint x="814.6199999999999" y="737.9200000000001" as="targetPoint" />
            <Array as="points">
              <mxPoint x="864.6199999999999" y="699.9" />
              <mxPoint x="864.6199999999999" y="737.9" />
            </Array>
            <mxPoint as="offset" />
          </mxGeometry>
        </mxCell>
      </root>
    </mxGraphModel>
  </diagram>
  <diagram id="l696x38a-Nqm5peT2Peu" name="集控站遥控执行">
    <mxGraphModel dx="1422" dy="763" grid="1" gridSize="10" guides="1" tooltips="1" connect="1" arrows="1" fold="1" page="1" pageScale="1" pageWidth="827" pageHeight="1169" math="0" shadow="0">
      <root>
        <mxCell id="x2HWCKkkfEyqD4hLZzFE-0" />
        <mxCell id="x2HWCKkkfEyqD4hLZzFE-1" parent="x2HWCKkkfEyqD4hLZzFE-0" />
        <mxCell id="jX1l36r8yX6FcAj8dOug-0" value="&lt;span style=&quot;background-color: rgb(255 , 255 , 255)&quot;&gt;操作控制服务&lt;/span&gt;" style="shape=umlLifeline;perimeter=lifelinePerimeter;whiteSpace=wrap;html=1;container=1;collapsible=0;recursiveResize=0;outlineConnect=0;rounded=1;shadow=0;comic=0;labelBackgroundColor=#99FF99;strokeWidth=1;fontFamily=Verdana;fontSize=12;align=center;fillColor=#d5e8d4;strokeColor=#82b366;" vertex="1" parent="x2HWCKkkfEyqD4hLZzFE-1">
          <mxGeometry x="750" y="60" width="100" height="812" as="geometry" />
        </mxCell>
        <mxCell id="jX1l36r8yX6FcAj8dOug-1" value="" style="html=1;points=[];perimeter=orthogonalPerimeter;rounded=0;shadow=0;comic=0;labelBackgroundColor=none;strokeWidth=1;fontFamily=Helvetica;fontSize=12;align=center;" vertex="1" parent="jX1l36r8yX6FcAj8dOug-0">
          <mxGeometry x="45" y="80" width="10" height="732" as="geometry" />
        </mxCell>
        <mxCell id="jX1l36r8yX6FcAj8dOug-2" value="mqtt：返回遥控执行结果" style="html=1;verticalAlign=bottom;endArrow=open;dashed=1;endSize=8;fontFamily=Helvetica;entryX=1;entryY=0.81;entryDx=0;entryDy=0;entryPerimeter=0;fontSize=12;" edge="1" parent="jX1l36r8yX6FcAj8dOug-0">
          <mxGeometry relative="1" as="geometry">
            <mxPoint x="255" y="630.2" as="sourcePoint" />
            <mxPoint x="55" y="630.2" as="targetPoint" />
          </mxGeometry>
        </mxCell>
        <mxCell id="jX1l36r8yX6FcAj8dOug-3" value="前置（安全Ⅰ区）" style="shape=umlLifeline;perimeter=lifelinePerimeter;whiteSpace=wrap;html=1;container=1;collapsible=0;recursiveResize=0;outlineConnect=0;rounded=1;shadow=0;comic=0;labelBackgroundColor=none;strokeWidth=1;fontFamily=Verdana;fontSize=12;align=center;fillColor=#ffe6cc;strokeColor=#d79b00;" vertex="1" parent="x2HWCKkkfEyqD4hLZzFE-1">
          <mxGeometry x="960" y="60" width="100" height="810" as="geometry" />
        </mxCell>
        <mxCell id="jX1l36r8yX6FcAj8dOug-4" value="" style="html=1;points=[];perimeter=orthogonalPerimeter;rounded=0;shadow=0;comic=0;labelBackgroundColor=none;strokeWidth=1;fontFamily=Helvetica;fontSize=12;align=center;" vertex="1" parent="jX1l36r8yX6FcAj8dOug-3">
          <mxGeometry x="45" y="80" width="10" height="730" as="geometry" />
        </mxCell>
        <mxCell id="jX1l36r8yX6FcAj8dOug-5" value="实时网关机" style="shape=umlLifeline;perimeter=lifelinePerimeter;whiteSpace=wrap;html=1;container=1;collapsible=0;recursiveResize=0;outlineConnect=0;rounded=1;shadow=0;comic=0;labelBackgroundColor=none;strokeWidth=1;fontFamily=Verdana;fontSize=12;align=center;fillColor=#ffe6cc;strokeColor=#d79b00;" vertex="1" parent="x2HWCKkkfEyqD4hLZzFE-1">
          <mxGeometry x="1100" y="60" width="100" height="811" as="geometry" />
        </mxCell>
        <mxCell id="jX1l36r8yX6FcAj8dOug-6" value="" style="html=1;points=[];perimeter=orthogonalPerimeter;rounded=0;shadow=0;comic=0;labelBackgroundColor=none;strokeWidth=1;fontFamily=Helvetica;fontSize=12;align=center;" vertex="1" parent="jX1l36r8yX6FcAj8dOug-5">
          <mxGeometry x="45" y="83" width="10" height="727" as="geometry" />
        </mxCell>
        <mxCell id="jX1l36r8yX6FcAj8dOug-7" value="操作控制服务" style="shape=umlLifeline;perimeter=lifelinePerimeter;whiteSpace=wrap;html=1;container=1;collapsible=0;recursiveResize=0;outlineConnect=0;rounded=1;shadow=0;comic=0;labelBackgroundColor=none;strokeWidth=1;fontFamily=Verdana;fontSize=12;align=center;fillColor=#d5e8d4;strokeColor=#82b366;" vertex="1" parent="x2HWCKkkfEyqD4hLZzFE-1">
          <mxGeometry x="1305.5" y="60" width="100" height="806" as="geometry" />
        </mxCell>
        <mxCell id="jX1l36r8yX6FcAj8dOug-8" value="" style="html=1;points=[];perimeter=orthogonalPerimeter;rounded=0;shadow=0;comic=0;labelBackgroundColor=none;strokeWidth=1;fontFamily=Helvetica;fontSize=12;align=center;" vertex="1" parent="jX1l36r8yX6FcAj8dOug-7">
          <mxGeometry x="45" y="88" width="10" height="718" as="geometry" />
        </mxCell>
        <mxCell id="jX1l36r8yX6FcAj8dOug-9" value="人机界面" style="shape=umlLifeline;perimeter=lifelinePerimeter;whiteSpace=wrap;html=1;container=1;collapsible=0;recursiveResize=0;outlineConnect=0;rounded=1;shadow=0;comic=0;labelBackgroundColor=none;strokeWidth=1;fontFamily=Verdana;fontSize=12;align=center;fillColor=#ffe6cc;strokeColor=#d79b00;" vertex="1" parent="x2HWCKkkfEyqD4hLZzFE-1">
          <mxGeometry x="540" y="60" width="100" height="807" as="geometry" />
        </mxCell>
        <mxCell id="jX1l36r8yX6FcAj8dOug-10" value="" style="html=1;points=[];perimeter=orthogonalPerimeter;rounded=0;shadow=0;comic=0;labelBackgroundColor=none;strokeWidth=1;fontFamily=Helvetica;fontSize=12;align=center;" vertex="1" parent="jX1l36r8yX6FcAj8dOug-9">
          <mxGeometry x="45" y="80" width="10" height="724" as="geometry" />
        </mxCell>
        <mxCell id="jX1l36r8yX6FcAj8dOug-11" value="104：请求遥控执行" style="html=1;verticalAlign=bottom;endArrow=block;labelBackgroundColor=none;fontFamily=Helvetica;fontSize=12;edgeStyle=elbowEdgeStyle;elbow=vertical;" edge="1" parent="x2HWCKkkfEyqD4hLZzFE-1">
          <mxGeometry relative="1" as="geometry">
            <mxPoint x="1015" y="327" as="sourcePoint" />
            <Array as="points">
              <mxPoint x="1020" y="327" />
            </Array>
            <mxPoint x="1145" y="327" as="targetPoint" />
          </mxGeometry>
        </mxCell>
        <mxCell id="jX1l36r8yX6FcAj8dOug-12" value="rest：请求遥控执行" style="html=1;verticalAlign=bottom;endArrow=block;labelBackgroundColor=none;fontFamily=Helvetica;fontSize=12;edgeStyle=elbowEdgeStyle;elbow=vertical;" edge="1" parent="x2HWCKkkfEyqD4hLZzFE-1">
          <mxGeometry relative="1" as="geometry">
            <mxPoint x="597" y="220" as="sourcePoint" />
            <mxPoint x="796.5" y="220" as="targetPoint" />
          </mxGeometry>
        </mxCell>
        <mxCell id="jX1l36r8yX6FcAj8dOug-13" value="&lt;div style=&quot;text-align: justify&quot;&gt;&lt;span&gt;&lt;font style=&quot;font-size: 18px&quot;&gt;调控/调度/集控&lt;/font&gt;&lt;/span&gt;&lt;/div&gt;" style="shape=note;whiteSpace=wrap;html=1;size=14;verticalAlign=top;align=center;spacingTop=-6;rounded=0;shadow=0;comic=0;labelBackgroundColor=none;strokeWidth=1;fontFamily=Verdana;fontSize=12;fillColor=#f5f5f5;strokeColor=#666666;fontColor=#333333;" vertex="1" parent="x2HWCKkkfEyqD4hLZzFE-1">
          <mxGeometry x="540" y="20" width="520" height="25" as="geometry" />
        </mxCell>
        <mxCell id="jX1l36r8yX6FcAj8dOug-14" value="&lt;font style=&quot;font-size: 18px&quot;&gt;变电站&lt;/font&gt;" style="shape=note;whiteSpace=wrap;html=1;size=14;verticalAlign=top;align=center;spacingTop=-6;rounded=0;shadow=0;comic=0;labelBackgroundColor=none;strokeWidth=1;fontFamily=Verdana;fontSize=12;fillColor=#f5f5f5;strokeColor=#666666;fontColor=#333333;" vertex="1" parent="x2HWCKkkfEyqD4hLZzFE-1">
          <mxGeometry x="1100" y="20" width="705" height="25" as="geometry" />
        </mxCell>
        <mxCell id="jX1l36r8yX6FcAj8dOug-15" value="mqtt：请求遥控执行" style="html=1;verticalAlign=bottom;endArrow=block;fontFamily=Helvetica;fontSize=12;" edge="1" parent="x2HWCKkkfEyqD4hLZzFE-1">
          <mxGeometry width="80" relative="1" as="geometry">
            <mxPoint x="1155.5" y="359" as="sourcePoint" />
            <mxPoint x="1346" y="359" as="targetPoint" />
          </mxGeometry>
        </mxCell>
        <mxCell id="jX1l36r8yX6FcAj8dOug-16" value="rest：返回遥控执行结果" style="html=1;verticalAlign=bottom;endArrow=open;dashed=1;endSize=8;fontFamily=Helvetica;entryX=1.1;entryY=0.98;entryDx=0;entryDy=0;entryPerimeter=0;fontSize=12;" edge="1" parent="x2HWCKkkfEyqD4hLZzFE-1">
          <mxGeometry relative="1" as="geometry">
            <mxPoint x="794" y="781" as="sourcePoint" />
            <mxPoint x="595" y="781" as="targetPoint" />
          </mxGeometry>
        </mxCell>
        <mxCell id="jX1l36r8yX6FcAj8dOug-17" value="104：返回遥控执行结果" style="html=1;verticalAlign=bottom;endArrow=open;dashed=1;endSize=8;fontFamily=Helvetica;entryX=1.2;entryY=0.9;entryDx=0;entryDy=0;entryPerimeter=0;fontSize=12;" edge="1" parent="x2HWCKkkfEyqD4hLZzFE-1">
          <mxGeometry x="0.0156" relative="1" as="geometry">
            <mxPoint x="1143" y="652" as="sourcePoint" />
            <mxPoint x="1015" y="652" as="targetPoint" />
            <mxPoint as="offset" />
          </mxGeometry>
        </mxCell>
        <mxCell id="jX1l36r8yX6FcAj8dOug-18" value="mqtt：返回遥控执行结果" style="html=1;verticalAlign=bottom;endArrow=open;dashed=1;endSize=8;fontFamily=Helvetica;entryX=1.2;entryY=0.9;entryDx=0;entryDy=0;entryPerimeter=0;fontSize=12;" edge="1" parent="x2HWCKkkfEyqD4hLZzFE-1">
          <mxGeometry x="0.0156" relative="1" as="geometry">
            <mxPoint x="1343" y="619" as="sourcePoint" />
            <mxPoint x="1154" y="619" as="targetPoint" />
            <mxPoint as="offset" />
          </mxGeometry>
        </mxCell>
        <mxCell id="jX1l36r8yX6FcAj8dOug-19" value="mqtt：请求遥控执行" style="html=1;verticalAlign=bottom;endArrow=block;labelBackgroundColor=none;fontFamily=Helvetica;fontSize=12;edgeStyle=elbowEdgeStyle;elbow=vertical;" edge="1" parent="x2HWCKkkfEyqD4hLZzFE-1">
          <mxGeometry x="0.003" relative="1" as="geometry">
            <mxPoint x="807" y="277" as="sourcePoint" />
            <mxPoint x="1006.5000000000005" y="277" as="targetPoint" />
            <Array as="points">
              <mxPoint x="917" y="277" />
              <mxPoint x="757" y="327" />
              <mxPoint x="747" y="327" />
            </Array>
            <mxPoint as="offset" />
          </mxGeometry>
        </mxCell>
        <mxCell id="jX1l36r8yX6FcAj8dOug-20" value="根据解闭锁状态、标识牌操作判断能否遥控执行" style="html=1;verticalAlign=bottom;endArrow=block;labelBackgroundColor=none;fontFamily=Verdana;fontSize=12;elbow=vertical;edgeStyle=orthogonalEdgeStyle;curved=1;entryX=1;entryY=0.286;entryPerimeter=0;exitX=1.038;exitY=0.345;exitPerimeter=0;" edge="1" parent="x2HWCKkkfEyqD4hLZzFE-1">
          <mxGeometry relative="1" as="geometry">
            <mxPoint x="590" y="159.9999999999999" as="sourcePoint" />
            <mxPoint x="594.6199999999999" y="197.91999999999996" as="targetPoint" />
            <Array as="points">
              <mxPoint x="644.62" y="159.89999999999998" />
              <mxPoint x="644.62" y="197.89999999999998" />
            </Array>
          </mxGeometry>
        </mxCell>
        <mxCell id="jX1l36r8yX6FcAj8dOug-21" value="判断责任区是否允许执行遥控" style="html=1;verticalAlign=bottom;endArrow=block;labelBackgroundColor=none;fontFamily=Verdana;fontSize=12;elbow=vertical;edgeStyle=orthogonalEdgeStyle;curved=1;entryX=1;entryY=0.286;entryPerimeter=0;exitX=1.038;exitY=0.345;exitPerimeter=0;" edge="1" parent="x2HWCKkkfEyqD4hLZzFE-1">
          <mxGeometry x="0.0177" y="25" relative="1" as="geometry">
            <mxPoint x="806" y="222.07999999999993" as="sourcePoint" />
            <mxPoint x="810.6199999999999" y="260" as="targetPoint" />
            <Array as="points">
              <mxPoint x="860.62" y="221.97999999999996" />
              <mxPoint x="860.62" y="259.97999999999996" />
            </Array>
            <mxPoint as="offset" />
          </mxGeometry>
        </mxCell>
        <mxCell id="jX1l36r8yX6FcAj8dOug-22" value="前置（安全Ⅰ区）" style="shape=umlLifeline;perimeter=lifelinePerimeter;whiteSpace=wrap;html=1;container=1;collapsible=0;recursiveResize=0;outlineConnect=0;rounded=1;shadow=0;comic=0;labelBackgroundColor=none;strokeWidth=1;fontFamily=Verdana;fontSize=12;align=center;fillColor=#ffe6cc;strokeColor=#d79b00;" vertex="1" parent="x2HWCKkkfEyqD4hLZzFE-1">
          <mxGeometry x="1505" y="60" width="100" height="806" as="geometry" />
        </mxCell>
        <mxCell id="jX1l36r8yX6FcAj8dOug-23" value="" style="html=1;points=[];perimeter=orthogonalPerimeter;rounded=0;shadow=0;comic=0;labelBackgroundColor=none;strokeWidth=1;fontFamily=Helvetica;fontSize=12;align=center;" vertex="1" parent="jX1l36r8yX6FcAj8dOug-22">
          <mxGeometry x="45" y="80" width="10" height="726" as="geometry" />
        </mxCell>
        <mxCell id="jX1l36r8yX6FcAj8dOug-24" value="mqtt：返回遥控执行结果" style="html=1;verticalAlign=bottom;endArrow=open;dashed=1;endSize=8;fontFamily=Helvetica;fontSize=12;" edge="1" parent="x2HWCKkkfEyqD4hLZzFE-1" source="jX1l36r8yX6FcAj8dOug-22">
          <mxGeometry x="0.0156" relative="1" as="geometry">
            <mxPoint x="1530" y="560" as="sourcePoint" />
            <mxPoint x="1359" y="560" as="targetPoint" />
            <mxPoint as="offset" />
          </mxGeometry>
        </mxCell>
        <mxCell id="jX1l36r8yX6FcAj8dOug-25" value="判断所遥控的站是否允许执行遥控" style="html=1;verticalAlign=bottom;endArrow=block;labelBackgroundColor=none;fontFamily=Verdana;fontSize=12;elbow=vertical;edgeStyle=orthogonalEdgeStyle;curved=1;entryX=1;entryY=0.286;entryPerimeter=0;exitX=1.038;exitY=0.345;exitPerimeter=0;" edge="1" parent="x2HWCKkkfEyqD4hLZzFE-1">
          <mxGeometry x="0.0177" y="25" relative="1" as="geometry">
            <mxPoint x="1363" y="360" as="sourcePoint" />
            <mxPoint x="1367.62" y="397.9200000000001" as="targetPoint" />
            <Array as="points">
              <mxPoint x="1417.62" y="359.9" />
              <mxPoint x="1417.62" y="397.9" />
            </Array>
            <mxPoint as="offset" />
          </mxGeometry>
        </mxCell>
        <mxCell id="jX1l36r8yX6FcAj8dOug-26" value="mqtt：请求遥控执行" style="html=1;verticalAlign=bottom;endArrow=block;fontFamily=Helvetica;fontSize=12;" edge="1" parent="x2HWCKkkfEyqD4hLZzFE-1">
          <mxGeometry width="80" relative="1" as="geometry">
            <mxPoint x="1364" y="432" as="sourcePoint" />
            <mxPoint x="1554.5" y="432" as="targetPoint" />
          </mxGeometry>
        </mxCell>
        <mxCell id="jX1l36r8yX6FcAj8dOug-27" value="设备" style="shape=umlLifeline;perimeter=lifelinePerimeter;whiteSpace=wrap;html=1;container=1;collapsible=0;recursiveResize=0;outlineConnect=0;rounded=1;shadow=0;comic=0;labelBackgroundColor=none;strokeWidth=1;fontFamily=Verdana;fontSize=12;align=center;fillColor=#ffe6cc;strokeColor=#d79b00;" vertex="1" parent="x2HWCKkkfEyqD4hLZzFE-1">
          <mxGeometry x="1708" y="60" width="100" height="802" as="geometry" />
        </mxCell>
        <mxCell id="jX1l36r8yX6FcAj8dOug-28" value="" style="html=1;points=[];perimeter=orthogonalPerimeter;rounded=0;shadow=0;comic=0;labelBackgroundColor=none;strokeWidth=1;fontFamily=Helvetica;fontSize=12;align=center;" vertex="1" parent="jX1l36r8yX6FcAj8dOug-27">
          <mxGeometry x="45" y="80" width="10" height="722" as="geometry" />
        </mxCell>
        <mxCell id="jX1l36r8yX6FcAj8dOug-29" value="？协议：请求遥控执行" style="html=1;verticalAlign=bottom;endArrow=block;fontFamily=Helvetica;fontSize=12;" edge="1" parent="x2HWCKkkfEyqD4hLZzFE-1">
          <mxGeometry width="80" relative="1" as="geometry">
            <mxPoint x="1563" y="464" as="sourcePoint" />
            <mxPoint x="1753.5" y="464" as="targetPoint" />
          </mxGeometry>
        </mxCell>
        <mxCell id="jX1l36r8yX6FcAj8dOug-30" value="？协议：返回遥控执行结果" style="html=1;verticalAlign=bottom;endArrow=open;dashed=1;endSize=8;fontFamily=Helvetica;fontSize=12;" edge="1" parent="x2HWCKkkfEyqD4hLZzFE-1" source="jX1l36r8yX6FcAj8dOug-27">
          <mxGeometry x="0.0156" relative="1" as="geometry">
            <mxPoint x="1730" y="521" as="sourcePoint" />
            <mxPoint x="1559" y="521" as="targetPoint" />
            <mxPoint as="offset" />
          </mxGeometry>
        </mxCell>
        <mxCell id="jX1l36r8yX6FcAj8dOug-31" value="解除责任区的锁" style="html=1;verticalAlign=bottom;endArrow=block;labelBackgroundColor=none;fontFamily=Verdana;fontSize=12;elbow=vertical;edgeStyle=orthogonalEdgeStyle;curved=1;entryX=1;entryY=0.286;entryPerimeter=0;exitX=1.038;exitY=0.345;exitPerimeter=0;" edge="1" parent="x2HWCKkkfEyqD4hLZzFE-1">
          <mxGeometry x="0.0177" y="25" relative="1" as="geometry">
            <mxPoint x="805" y="719" as="sourcePoint" />
            <mxPoint x="809.6199999999999" y="756.9200000000001" as="targetPoint" />
            <Array as="points">
              <mxPoint x="859.62" y="718.9" />
              <mxPoint x="859.62" y="756.9" />
            </Array>
            <mxPoint as="offset" />
          </mxGeometry>
        </mxCell>
        <mxCell id="jX1l36r8yX6FcAj8dOug-32" value="解除所遥控站的锁" style="html=1;verticalAlign=bottom;endArrow=block;labelBackgroundColor=none;fontFamily=Verdana;fontSize=12;elbow=vertical;edgeStyle=orthogonalEdgeStyle;curved=1;entryX=1;entryY=0.286;entryPerimeter=0;exitX=1.038;exitY=0.345;exitPerimeter=0;" edge="1" parent="x2HWCKkkfEyqD4hLZzFE-1">
          <mxGeometry x="0.0177" y="25" relative="1" as="geometry">
            <mxPoint x="1360" y="573" as="sourcePoint" />
            <mxPoint x="1364.62" y="610.9200000000001" as="targetPoint" />
            <Array as="points">
              <mxPoint x="1414.62" y="572.9" />
              <mxPoint x="1414.62" y="610.9" />
            </Array>
            <mxPoint as="offset" />
          </mxGeometry>
        </mxCell>
      </root>
    </mxGraphModel>
  </diagram>
  <diagram id="7f3GRGj8eqlCdQturWai" name="集控站遥控撤销">
    <mxGraphModel dx="1422" dy="763" grid="1" gridSize="10" guides="1" tooltips="1" connect="1" arrows="1" fold="1" page="1" pageScale="1" pageWidth="827" pageHeight="1169" math="0" shadow="0">
      <root>
        <mxCell id="ZuWGsQ8DyUzYGvk5d2aV-0" />
        <mxCell id="ZuWGsQ8DyUzYGvk5d2aV-1" parent="ZuWGsQ8DyUzYGvk5d2aV-0" />
        <mxCell id="k-PNkeczVrlQ-6iHQjST-0" value="&lt;span style=&quot;background-color: rgb(255 , 255 , 255)&quot;&gt;操作控制服务&lt;/span&gt;" style="shape=umlLifeline;perimeter=lifelinePerimeter;whiteSpace=wrap;html=1;container=1;collapsible=0;recursiveResize=0;outlineConnect=0;rounded=1;shadow=0;comic=0;labelBackgroundColor=#99FF99;strokeWidth=1;fontFamily=Verdana;fontSize=12;align=center;fillColor=#d5e8d4;strokeColor=#82b366;" vertex="1" parent="ZuWGsQ8DyUzYGvk5d2aV-1">
          <mxGeometry x="750" y="60" width="100" height="812" as="geometry" />
        </mxCell>
        <mxCell id="k-PNkeczVrlQ-6iHQjST-1" value="" style="html=1;points=[];perimeter=orthogonalPerimeter;rounded=0;shadow=0;comic=0;labelBackgroundColor=none;strokeWidth=1;fontFamily=Helvetica;fontSize=12;align=center;" vertex="1" parent="k-PNkeczVrlQ-6iHQjST-0">
          <mxGeometry x="45" y="80" width="10" height="732" as="geometry" />
        </mxCell>
        <mxCell id="k-PNkeczVrlQ-6iHQjST-2" value="mqtt：返回遥控选择结果" style="html=1;verticalAlign=bottom;endArrow=open;dashed=1;endSize=8;fontFamily=Helvetica;entryX=1;entryY=0.81;entryDx=0;entryDy=0;entryPerimeter=0;fontSize=12;" edge="1" parent="k-PNkeczVrlQ-6iHQjST-0">
          <mxGeometry relative="1" as="geometry">
            <mxPoint x="255" y="630.2" as="sourcePoint" />
            <mxPoint x="55" y="630.2" as="targetPoint" />
          </mxGeometry>
        </mxCell>
        <mxCell id="k-PNkeczVrlQ-6iHQjST-3" value="前置（安全Ⅰ区）" style="shape=umlLifeline;perimeter=lifelinePerimeter;whiteSpace=wrap;html=1;container=1;collapsible=0;recursiveResize=0;outlineConnect=0;rounded=1;shadow=0;comic=0;labelBackgroundColor=none;strokeWidth=1;fontFamily=Verdana;fontSize=12;align=center;fillColor=#ffe6cc;strokeColor=#d79b00;" vertex="1" parent="ZuWGsQ8DyUzYGvk5d2aV-1">
          <mxGeometry x="960" y="60" width="100" height="810" as="geometry" />
        </mxCell>
        <mxCell id="k-PNkeczVrlQ-6iHQjST-4" value="" style="html=1;points=[];perimeter=orthogonalPerimeter;rounded=0;shadow=0;comic=0;labelBackgroundColor=none;strokeWidth=1;fontFamily=Helvetica;fontSize=12;align=center;" vertex="1" parent="k-PNkeczVrlQ-6iHQjST-3">
          <mxGeometry x="45" y="80" width="10" height="730" as="geometry" />
        </mxCell>
        <mxCell id="k-PNkeczVrlQ-6iHQjST-5" value="实时网关机" style="shape=umlLifeline;perimeter=lifelinePerimeter;whiteSpace=wrap;html=1;container=1;collapsible=0;recursiveResize=0;outlineConnect=0;rounded=1;shadow=0;comic=0;labelBackgroundColor=none;strokeWidth=1;fontFamily=Verdana;fontSize=12;align=center;fillColor=#ffe6cc;strokeColor=#d79b00;" vertex="1" parent="ZuWGsQ8DyUzYGvk5d2aV-1">
          <mxGeometry x="1100" y="60" width="100" height="811" as="geometry" />
        </mxCell>
        <mxCell id="k-PNkeczVrlQ-6iHQjST-6" value="" style="html=1;points=[];perimeter=orthogonalPerimeter;rounded=0;shadow=0;comic=0;labelBackgroundColor=none;strokeWidth=1;fontFamily=Helvetica;fontSize=12;align=center;" vertex="1" parent="k-PNkeczVrlQ-6iHQjST-5">
          <mxGeometry x="45" y="83" width="10" height="727" as="geometry" />
        </mxCell>
        <mxCell id="k-PNkeczVrlQ-6iHQjST-7" value="操作控制服务" style="shape=umlLifeline;perimeter=lifelinePerimeter;whiteSpace=wrap;html=1;container=1;collapsible=0;recursiveResize=0;outlineConnect=0;rounded=1;shadow=0;comic=0;labelBackgroundColor=none;strokeWidth=1;fontFamily=Verdana;fontSize=12;align=center;fillColor=#d5e8d4;strokeColor=#82b366;" vertex="1" parent="ZuWGsQ8DyUzYGvk5d2aV-1">
          <mxGeometry x="1305.5" y="60" width="100" height="806" as="geometry" />
        </mxCell>
        <mxCell id="k-PNkeczVrlQ-6iHQjST-8" value="" style="html=1;points=[];perimeter=orthogonalPerimeter;rounded=0;shadow=0;comic=0;labelBackgroundColor=none;strokeWidth=1;fontFamily=Helvetica;fontSize=12;align=center;" vertex="1" parent="k-PNkeczVrlQ-6iHQjST-7">
          <mxGeometry x="45" y="88" width="10" height="718" as="geometry" />
        </mxCell>
        <mxCell id="k-PNkeczVrlQ-6iHQjST-9" value="人机界面" style="shape=umlLifeline;perimeter=lifelinePerimeter;whiteSpace=wrap;html=1;container=1;collapsible=0;recursiveResize=0;outlineConnect=0;rounded=1;shadow=0;comic=0;labelBackgroundColor=none;strokeWidth=1;fontFamily=Verdana;fontSize=12;align=center;fillColor=#ffe6cc;strokeColor=#d79b00;" vertex="1" parent="ZuWGsQ8DyUzYGvk5d2aV-1">
          <mxGeometry x="540" y="60" width="100" height="807" as="geometry" />
        </mxCell>
        <mxCell id="k-PNkeczVrlQ-6iHQjST-10" value="" style="html=1;points=[];perimeter=orthogonalPerimeter;rounded=0;shadow=0;comic=0;labelBackgroundColor=none;strokeWidth=1;fontFamily=Helvetica;fontSize=12;align=center;" vertex="1" parent="k-PNkeczVrlQ-6iHQjST-9">
          <mxGeometry x="45" y="80" width="10" height="724" as="geometry" />
        </mxCell>
        <mxCell id="k-PNkeczVrlQ-6iHQjST-11" value="104：请求遥控选择" style="html=1;verticalAlign=bottom;endArrow=block;labelBackgroundColor=none;fontFamily=Helvetica;fontSize=12;edgeStyle=elbowEdgeStyle;elbow=vertical;" edge="1" parent="ZuWGsQ8DyUzYGvk5d2aV-1">
          <mxGeometry relative="1" as="geometry">
            <mxPoint x="1015" y="327" as="sourcePoint" />
            <Array as="points">
              <mxPoint x="1020" y="327" />
            </Array>
            <mxPoint x="1145" y="327" as="targetPoint" />
          </mxGeometry>
        </mxCell>
        <mxCell id="k-PNkeczVrlQ-6iHQjST-12" value="rest：请求遥控选择" style="html=1;verticalAlign=bottom;endArrow=block;labelBackgroundColor=none;fontFamily=Helvetica;fontSize=12;edgeStyle=elbowEdgeStyle;elbow=vertical;" edge="1" parent="ZuWGsQ8DyUzYGvk5d2aV-1">
          <mxGeometry relative="1" as="geometry">
            <mxPoint x="597" y="220" as="sourcePoint" />
            <mxPoint x="796.5" y="220" as="targetPoint" />
          </mxGeometry>
        </mxCell>
        <mxCell id="k-PNkeczVrlQ-6iHQjST-13" value="&lt;div style=&quot;text-align: justify&quot;&gt;&lt;span&gt;&lt;font style=&quot;font-size: 18px&quot;&gt;调控/调度/集控&lt;/font&gt;&lt;/span&gt;&lt;/div&gt;" style="shape=note;whiteSpace=wrap;html=1;size=14;verticalAlign=top;align=center;spacingTop=-6;rounded=0;shadow=0;comic=0;labelBackgroundColor=none;strokeWidth=1;fontFamily=Verdana;fontSize=12;fillColor=#f5f5f5;strokeColor=#666666;fontColor=#333333;" vertex="1" parent="ZuWGsQ8DyUzYGvk5d2aV-1">
          <mxGeometry x="540" y="20" width="520" height="25" as="geometry" />
        </mxCell>
        <mxCell id="k-PNkeczVrlQ-6iHQjST-14" value="&lt;font style=&quot;font-size: 18px&quot;&gt;变电站&lt;/font&gt;" style="shape=note;whiteSpace=wrap;html=1;size=14;verticalAlign=top;align=center;spacingTop=-6;rounded=0;shadow=0;comic=0;labelBackgroundColor=none;strokeWidth=1;fontFamily=Verdana;fontSize=12;fillColor=#f5f5f5;strokeColor=#666666;fontColor=#333333;" vertex="1" parent="ZuWGsQ8DyUzYGvk5d2aV-1">
          <mxGeometry x="1100" y="20" width="705" height="25" as="geometry" />
        </mxCell>
        <mxCell id="k-PNkeczVrlQ-6iHQjST-15" value="mqtt：请求遥控选择" style="html=1;verticalAlign=bottom;endArrow=block;fontFamily=Helvetica;fontSize=12;" edge="1" parent="ZuWGsQ8DyUzYGvk5d2aV-1">
          <mxGeometry width="80" relative="1" as="geometry">
            <mxPoint x="1155.5" y="359" as="sourcePoint" />
            <mxPoint x="1346" y="359" as="targetPoint" />
          </mxGeometry>
        </mxCell>
        <mxCell id="k-PNkeczVrlQ-6iHQjST-16" value="rest：返回遥控选择结果" style="html=1;verticalAlign=bottom;endArrow=open;dashed=1;endSize=8;fontFamily=Helvetica;entryX=1.1;entryY=0.98;entryDx=0;entryDy=0;entryPerimeter=0;fontSize=12;" edge="1" parent="ZuWGsQ8DyUzYGvk5d2aV-1">
          <mxGeometry relative="1" as="geometry">
            <mxPoint x="794" y="746" as="sourcePoint" />
            <mxPoint x="595" y="746" as="targetPoint" />
          </mxGeometry>
        </mxCell>
        <mxCell id="k-PNkeczVrlQ-6iHQjST-17" value="104：返回遥控选择结果" style="html=1;verticalAlign=bottom;endArrow=open;dashed=1;endSize=8;fontFamily=Helvetica;entryX=1.2;entryY=0.9;entryDx=0;entryDy=0;entryPerimeter=0;fontSize=12;" edge="1" parent="ZuWGsQ8DyUzYGvk5d2aV-1">
          <mxGeometry x="0.0156" relative="1" as="geometry">
            <mxPoint x="1143" y="652" as="sourcePoint" />
            <mxPoint x="1015" y="652" as="targetPoint" />
            <mxPoint as="offset" />
          </mxGeometry>
        </mxCell>
        <mxCell id="k-PNkeczVrlQ-6iHQjST-18" value="mqtt：返回遥控选择结果" style="html=1;verticalAlign=bottom;endArrow=open;dashed=1;endSize=8;fontFamily=Helvetica;entryX=1.2;entryY=0.9;entryDx=0;entryDy=0;entryPerimeter=0;fontSize=12;" edge="1" parent="ZuWGsQ8DyUzYGvk5d2aV-1">
          <mxGeometry x="0.0156" relative="1" as="geometry">
            <mxPoint x="1343" y="619" as="sourcePoint" />
            <mxPoint x="1154" y="619" as="targetPoint" />
            <mxPoint as="offset" />
          </mxGeometry>
        </mxCell>
        <mxCell id="k-PNkeczVrlQ-6iHQjST-19" value="mqtt：请求遥控选择" style="html=1;verticalAlign=bottom;endArrow=block;labelBackgroundColor=none;fontFamily=Helvetica;fontSize=12;edgeStyle=elbowEdgeStyle;elbow=vertical;" edge="1" parent="ZuWGsQ8DyUzYGvk5d2aV-1">
          <mxGeometry x="0.003" relative="1" as="geometry">
            <mxPoint x="807" y="277" as="sourcePoint" />
            <mxPoint x="1006.5000000000005" y="277" as="targetPoint" />
            <Array as="points">
              <mxPoint x="917" y="277" />
              <mxPoint x="757" y="327" />
              <mxPoint x="747" y="327" />
            </Array>
            <mxPoint as="offset" />
          </mxGeometry>
        </mxCell>
        <mxCell id="k-PNkeczVrlQ-6iHQjST-20" value="根据解闭锁状态、标识牌操作判断能否遥控撤销" style="html=1;verticalAlign=bottom;endArrow=block;labelBackgroundColor=none;fontFamily=Verdana;fontSize=12;elbow=vertical;edgeStyle=orthogonalEdgeStyle;curved=1;entryX=1;entryY=0.286;entryPerimeter=0;exitX=1.038;exitY=0.345;exitPerimeter=0;" edge="1" parent="ZuWGsQ8DyUzYGvk5d2aV-1">
          <mxGeometry relative="1" as="geometry">
            <mxPoint x="590" y="159.9999999999999" as="sourcePoint" />
            <mxPoint x="594.6199999999999" y="197.91999999999996" as="targetPoint" />
            <Array as="points">
              <mxPoint x="644.62" y="159.89999999999998" />
              <mxPoint x="644.62" y="197.89999999999998" />
            </Array>
          </mxGeometry>
        </mxCell>
        <mxCell id="k-PNkeczVrlQ-6iHQjST-21" value="判断责任区是否存在其它遥控" style="html=1;verticalAlign=bottom;endArrow=block;labelBackgroundColor=none;fontFamily=Verdana;fontSize=12;elbow=vertical;edgeStyle=orthogonalEdgeStyle;curved=1;entryX=1;entryY=0.286;entryPerimeter=0;exitX=1.038;exitY=0.345;exitPerimeter=0;" edge="1" parent="ZuWGsQ8DyUzYGvk5d2aV-1">
          <mxGeometry x="0.0177" y="25" relative="1" as="geometry">
            <mxPoint x="806" y="222.07999999999993" as="sourcePoint" />
            <mxPoint x="810.6199999999999" y="260" as="targetPoint" />
            <Array as="points">
              <mxPoint x="860.62" y="221.97999999999996" />
              <mxPoint x="860.62" y="259.97999999999996" />
            </Array>
            <mxPoint as="offset" />
          </mxGeometry>
        </mxCell>
        <mxCell id="k-PNkeczVrlQ-6iHQjST-22" value="前置（安全Ⅰ区）" style="shape=umlLifeline;perimeter=lifelinePerimeter;whiteSpace=wrap;html=1;container=1;collapsible=0;recursiveResize=0;outlineConnect=0;rounded=1;shadow=0;comic=0;labelBackgroundColor=none;strokeWidth=1;fontFamily=Verdana;fontSize=12;align=center;fillColor=#ffe6cc;strokeColor=#d79b00;" vertex="1" parent="ZuWGsQ8DyUzYGvk5d2aV-1">
          <mxGeometry x="1505" y="60" width="100" height="806" as="geometry" />
        </mxCell>
        <mxCell id="k-PNkeczVrlQ-6iHQjST-23" value="" style="html=1;points=[];perimeter=orthogonalPerimeter;rounded=0;shadow=0;comic=0;labelBackgroundColor=none;strokeWidth=1;fontFamily=Helvetica;fontSize=12;align=center;" vertex="1" parent="k-PNkeczVrlQ-6iHQjST-22">
          <mxGeometry x="45" y="80" width="10" height="726" as="geometry" />
        </mxCell>
        <mxCell id="k-PNkeczVrlQ-6iHQjST-24" value="mqtt：返回遥控选择结果" style="html=1;verticalAlign=bottom;endArrow=open;dashed=1;endSize=8;fontFamily=Helvetica;fontSize=12;" edge="1" parent="ZuWGsQ8DyUzYGvk5d2aV-1" source="k-PNkeczVrlQ-6iHQjST-22">
          <mxGeometry x="0.0156" relative="1" as="geometry">
            <mxPoint x="1530" y="560" as="sourcePoint" />
            <mxPoint x="1359" y="560" as="targetPoint" />
            <mxPoint as="offset" />
          </mxGeometry>
        </mxCell>
        <mxCell id="k-PNkeczVrlQ-6iHQjST-25" value="判断所遥控的站是否存在其它遥控" style="html=1;verticalAlign=bottom;endArrow=block;labelBackgroundColor=none;fontFamily=Verdana;fontSize=12;elbow=vertical;edgeStyle=orthogonalEdgeStyle;curved=1;entryX=1;entryY=0.286;entryPerimeter=0;exitX=1.038;exitY=0.345;exitPerimeter=0;" edge="1" parent="ZuWGsQ8DyUzYGvk5d2aV-1">
          <mxGeometry x="0.0177" y="25" relative="1" as="geometry">
            <mxPoint x="1363" y="360" as="sourcePoint" />
            <mxPoint x="1367.62" y="397.9200000000001" as="targetPoint" />
            <Array as="points">
              <mxPoint x="1417.62" y="359.9" />
              <mxPoint x="1417.62" y="397.9" />
            </Array>
            <mxPoint as="offset" />
          </mxGeometry>
        </mxCell>
        <mxCell id="k-PNkeczVrlQ-6iHQjST-26" value="mqtt：请求遥控选择" style="html=1;verticalAlign=bottom;endArrow=block;fontFamily=Helvetica;fontSize=12;" edge="1" parent="ZuWGsQ8DyUzYGvk5d2aV-1">
          <mxGeometry width="80" relative="1" as="geometry">
            <mxPoint x="1364" y="432" as="sourcePoint" />
            <mxPoint x="1554.5" y="432" as="targetPoint" />
          </mxGeometry>
        </mxCell>
        <mxCell id="k-PNkeczVrlQ-6iHQjST-27" value="设备" style="shape=umlLifeline;perimeter=lifelinePerimeter;whiteSpace=wrap;html=1;container=1;collapsible=0;recursiveResize=0;outlineConnect=0;rounded=1;shadow=0;comic=0;labelBackgroundColor=none;strokeWidth=1;fontFamily=Verdana;fontSize=12;align=center;fillColor=#ffe6cc;strokeColor=#d79b00;" vertex="1" parent="ZuWGsQ8DyUzYGvk5d2aV-1">
          <mxGeometry x="1708" y="60" width="100" height="802" as="geometry" />
        </mxCell>
        <mxCell id="k-PNkeczVrlQ-6iHQjST-28" value="" style="html=1;points=[];perimeter=orthogonalPerimeter;rounded=0;shadow=0;comic=0;labelBackgroundColor=none;strokeWidth=1;fontFamily=Helvetica;fontSize=12;align=center;" vertex="1" parent="k-PNkeczVrlQ-6iHQjST-27">
          <mxGeometry x="45" y="80" width="10" height="722" as="geometry" />
        </mxCell>
        <mxCell id="k-PNkeczVrlQ-6iHQjST-29" value="？协议：请求遥控选择" style="html=1;verticalAlign=bottom;endArrow=block;fontFamily=Helvetica;fontSize=12;" edge="1" parent="ZuWGsQ8DyUzYGvk5d2aV-1">
          <mxGeometry width="80" relative="1" as="geometry">
            <mxPoint x="1563" y="464" as="sourcePoint" />
            <mxPoint x="1753.5" y="464" as="targetPoint" />
          </mxGeometry>
        </mxCell>
        <mxCell id="k-PNkeczVrlQ-6iHQjST-30" value="？协议：返回遥控选择结果" style="html=1;verticalAlign=bottom;endArrow=open;dashed=1;endSize=8;fontFamily=Helvetica;fontSize=12;" edge="1" parent="ZuWGsQ8DyUzYGvk5d2aV-1" source="k-PNkeczVrlQ-6iHQjST-27">
          <mxGeometry x="0.0156" relative="1" as="geometry">
            <mxPoint x="1730" y="521" as="sourcePoint" />
            <mxPoint x="1559" y="521" as="targetPoint" />
            <mxPoint as="offset" />
          </mxGeometry>
        </mxCell>
        <mxCell id="k-PNkeczVrlQ-6iHQjST-31" value="选择操作通过加锁" style="html=1;verticalAlign=bottom;endArrow=block;labelBackgroundColor=none;fontFamily=Verdana;fontSize=12;elbow=vertical;edgeStyle=orthogonalEdgeStyle;curved=1;entryX=1;entryY=0.286;entryPerimeter=0;exitX=1.038;exitY=0.345;exitPerimeter=0;" edge="1" parent="ZuWGsQ8DyUzYGvk5d2aV-1">
          <mxGeometry x="0.0177" y="25" relative="1" as="geometry">
            <mxPoint x="1363" y="579" as="sourcePoint" />
            <mxPoint x="1367.62" y="616.9200000000001" as="targetPoint" />
            <Array as="points">
              <mxPoint x="1417.62" y="578.9" />
              <mxPoint x="1417.62" y="616.9" />
            </Array>
            <mxPoint as="offset" />
          </mxGeometry>
        </mxCell>
        <mxCell id="k-PNkeczVrlQ-6iHQjST-32" value="选择操作通过加锁" style="html=1;verticalAlign=bottom;endArrow=block;labelBackgroundColor=none;fontFamily=Verdana;fontSize=12;elbow=vertical;edgeStyle=orthogonalEdgeStyle;curved=1;entryX=1;entryY=0.286;entryPerimeter=0;exitX=1.038;exitY=0.345;exitPerimeter=0;" edge="1" parent="ZuWGsQ8DyUzYGvk5d2aV-1">
          <mxGeometry x="0.0177" y="25" relative="1" as="geometry">
            <mxPoint x="810" y="700" as="sourcePoint" />
            <mxPoint x="814.6199999999999" y="737.9200000000001" as="targetPoint" />
            <Array as="points">
              <mxPoint x="864.6199999999999" y="699.9" />
              <mxPoint x="864.6199999999999" y="737.9" />
            </Array>
            <mxPoint as="offset" />
          </mxGeometry>
        </mxCell>
      </root>
    </mxGraphModel>
  </diagram>
  <diagram id="9o3CwmvH5UfDT6bgjeNN" name="变电站直控">
    <mxGraphModel dx="595" dy="763" grid="0" gridSize="10" guides="1" tooltips="1" connect="1" arrows="1" fold="1" page="1" pageScale="1" pageWidth="827" pageHeight="1169" math="0" shadow="1">
      <root>
        <mxCell id="wMq_7famFR51GRSwdipC-0" />
        <mxCell id="wMq_7famFR51GRSwdipC-1" parent="wMq_7famFR51GRSwdipC-0" />
        <mxCell id="ciZsR9RCfxFkyUFJthsd-7" value="操作控制服务" style="shape=umlLifeline;perimeter=lifelinePerimeter;whiteSpace=wrap;html=1;container=1;collapsible=0;recursiveResize=0;outlineConnect=0;rounded=1;shadow=0;comic=0;labelBackgroundColor=none;strokeWidth=1;fontFamily=Verdana;fontSize=12;align=center;fillColor=#d5e8d4;strokeColor=#82b366;" parent="wMq_7famFR51GRSwdipC-1" vertex="1">
          <mxGeometry x="1525.5" y="170" width="100" height="806" as="geometry" />
        </mxCell>
        <mxCell id="ciZsR9RCfxFkyUFJthsd-8" value="" style="html=1;points=[];perimeter=orthogonalPerimeter;rounded=0;shadow=0;comic=0;labelBackgroundColor=none;strokeWidth=1;fontFamily=Helvetica;fontSize=12;align=center;" parent="ciZsR9RCfxFkyUFJthsd-7" vertex="1">
          <mxGeometry x="45" y="88" width="10" height="718" as="geometry" />
        </mxCell>
        <mxCell id="ciZsR9RCfxFkyUFJthsd-14" value="&lt;font style=&quot;font-size: 18px&quot;&gt;变电站&lt;/font&gt;" style="shape=note;whiteSpace=wrap;html=1;size=14;verticalAlign=top;align=center;spacingTop=-6;rounded=0;shadow=0;comic=0;labelBackgroundColor=none;strokeWidth=1;fontFamily=Verdana;fontSize=12;fillColor=#f5f5f5;strokeColor=#666666;fontColor=#333333;" parent="wMq_7famFR51GRSwdipC-1" vertex="1">
          <mxGeometry x="1320" y="130" width="705" height="25" as="geometry" />
        </mxCell>
        <mxCell id="ciZsR9RCfxFkyUFJthsd-22" value="前置（安全Ⅰ区）" style="shape=umlLifeline;perimeter=lifelinePerimeter;whiteSpace=wrap;html=1;container=1;collapsible=0;recursiveResize=0;outlineConnect=0;rounded=1;shadow=0;comic=0;labelBackgroundColor=none;strokeWidth=1;fontFamily=Verdana;fontSize=12;align=center;fillColor=#ffe6cc;strokeColor=#d79b00;" parent="wMq_7famFR51GRSwdipC-1" vertex="1">
          <mxGeometry x="1725" y="170" width="100" height="806" as="geometry" />
        </mxCell>
        <mxCell id="ciZsR9RCfxFkyUFJthsd-23" value="" style="html=1;points=[];perimeter=orthogonalPerimeter;rounded=0;shadow=0;comic=0;labelBackgroundColor=none;strokeWidth=1;fontFamily=Helvetica;fontSize=12;align=center;" parent="ciZsR9RCfxFkyUFJthsd-22" vertex="1">
          <mxGeometry x="45" y="80" width="10" height="726" as="geometry" />
        </mxCell>
        <mxCell id="ciZsR9RCfxFkyUFJthsd-24" value="mqtt：返回遥控结果" style="html=1;verticalAlign=bottom;endArrow=open;dashed=1;endSize=8;fontFamily=Helvetica;fontSize=12;" parent="wMq_7famFR51GRSwdipC-1" source="ciZsR9RCfxFkyUFJthsd-22" edge="1">
          <mxGeometry x="0.0156" relative="1" as="geometry">
            <mxPoint x="1750" y="670" as="sourcePoint" />
            <mxPoint x="1579" y="670" as="targetPoint" />
            <mxPoint as="offset" />
          </mxGeometry>
        </mxCell>
        <mxCell id="ciZsR9RCfxFkyUFJthsd-25" value="判断所遥控的站是否存在其它遥控，若无加锁" style="html=1;verticalAlign=bottom;endArrow=block;labelBackgroundColor=none;fontFamily=Verdana;fontSize=12;elbow=vertical;edgeStyle=orthogonalEdgeStyle;curved=1;entryX=1;entryY=0.286;entryPerimeter=0;exitX=1.038;exitY=0.345;exitPerimeter=0;" parent="wMq_7famFR51GRSwdipC-1" edge="1">
          <mxGeometry x="0.0177" y="25" relative="1" as="geometry">
            <mxPoint x="1583" y="470" as="sourcePoint" />
            <mxPoint x="1587.62" y="507.9200000000001" as="targetPoint" />
            <Array as="points">
              <mxPoint x="1637.62" y="469.9" />
              <mxPoint x="1637.62" y="507.9" />
            </Array>
            <mxPoint as="offset" />
          </mxGeometry>
        </mxCell>
        <mxCell id="ciZsR9RCfxFkyUFJthsd-26" value="mqtt：请求遥控" style="html=1;verticalAlign=bottom;endArrow=block;fontFamily=Helvetica;fontSize=12;" parent="wMq_7famFR51GRSwdipC-1" edge="1">
          <mxGeometry width="80" relative="1" as="geometry">
            <mxPoint x="1580" y="542" as="sourcePoint" />
            <mxPoint x="1774.5" y="542" as="targetPoint" />
          </mxGeometry>
        </mxCell>
        <mxCell id="ciZsR9RCfxFkyUFJthsd-27" value="设备" style="shape=umlLifeline;perimeter=lifelinePerimeter;whiteSpace=wrap;html=1;container=1;collapsible=0;recursiveResize=0;outlineConnect=0;rounded=1;shadow=0;comic=0;labelBackgroundColor=none;strokeWidth=1;fontFamily=Verdana;fontSize=12;align=center;fillColor=#ffe6cc;strokeColor=#d79b00;" parent="wMq_7famFR51GRSwdipC-1" vertex="1">
          <mxGeometry x="1928" y="170" width="100" height="802" as="geometry" />
        </mxCell>
        <mxCell id="ciZsR9RCfxFkyUFJthsd-28" value="" style="html=1;points=[];perimeter=orthogonalPerimeter;rounded=0;shadow=0;comic=0;labelBackgroundColor=none;strokeWidth=1;fontFamily=Helvetica;fontSize=12;align=center;" parent="ciZsR9RCfxFkyUFJthsd-27" vertex="1">
          <mxGeometry x="45" y="80" width="10" height="722" as="geometry" />
        </mxCell>
        <mxCell id="ciZsR9RCfxFkyUFJthsd-29" value="？协议：请求遥控" style="html=1;verticalAlign=bottom;endArrow=block;fontFamily=Helvetica;fontSize=12;" parent="wMq_7famFR51GRSwdipC-1" edge="1">
          <mxGeometry width="80" relative="1" as="geometry">
            <mxPoint x="1783" y="574" as="sourcePoint" />
            <mxPoint x="1973.5" y="574" as="targetPoint" />
          </mxGeometry>
        </mxCell>
        <mxCell id="ciZsR9RCfxFkyUFJthsd-30" value="？协议：返回遥控结果" style="html=1;verticalAlign=bottom;endArrow=open;dashed=1;endSize=8;fontFamily=Helvetica;fontSize=12;" parent="wMq_7famFR51GRSwdipC-1" source="ciZsR9RCfxFkyUFJthsd-27" edge="1">
          <mxGeometry x="0.0156" relative="1" as="geometry">
            <mxPoint x="1950" y="631" as="sourcePoint" />
            <mxPoint x="1779" y="631" as="targetPoint" />
            <mxPoint as="offset" />
          </mxGeometry>
        </mxCell>
        <mxCell id="ciZsR9RCfxFkyUFJthsd-32" value="解除所遥控站的锁" style="html=1;verticalAlign=bottom;endArrow=block;labelBackgroundColor=none;fontFamily=Verdana;fontSize=12;elbow=vertical;edgeStyle=orthogonalEdgeStyle;curved=1;entryX=1;entryY=0.286;entryPerimeter=0;exitX=1.038;exitY=0.345;exitPerimeter=0;" parent="wMq_7famFR51GRSwdipC-1" edge="1">
          <mxGeometry x="0.0177" y="25" relative="1" as="geometry">
            <mxPoint x="1580" y="683" as="sourcePoint" />
            <mxPoint x="1584.62" y="720.9200000000001" as="targetPoint" />
            <Array as="points">
              <mxPoint x="1634.62" y="682.9" />
              <mxPoint x="1634.62" y="720.9" />
            </Array>
            <mxPoint as="offset" />
          </mxGeometry>
        </mxCell>
        <mxCell id="AnVUDT3IRgTYin_r3TKA-0" value="人机界面" style="shape=umlLifeline;perimeter=lifelinePerimeter;whiteSpace=wrap;html=1;container=1;collapsible=0;recursiveResize=0;outlineConnect=0;rounded=1;shadow=0;comic=0;labelBackgroundColor=none;strokeWidth=1;fontFamily=Verdana;fontSize=12;align=center;fillColor=#ffe6cc;strokeColor=#d79b00;" parent="wMq_7famFR51GRSwdipC-1" vertex="1">
          <mxGeometry x="1320" y="170" width="100" height="807" as="geometry" />
        </mxCell>
        <mxCell id="AnVUDT3IRgTYin_r3TKA-1" value="" style="html=1;points=[];perimeter=orthogonalPerimeter;rounded=0;shadow=0;comic=0;labelBackgroundColor=none;strokeWidth=1;fontFamily=Helvetica;fontSize=12;align=center;" parent="AnVUDT3IRgTYin_r3TKA-0" vertex="1">
          <mxGeometry x="45" y="80" width="10" height="724" as="geometry" />
        </mxCell>
        <mxCell id="AnVUDT3IRgTYin_r3TKA-2" value="rest：请求遥控" style="html=1;verticalAlign=bottom;endArrow=block;labelBackgroundColor=none;fontFamily=Helvetica;fontSize=12;edgeStyle=elbowEdgeStyle;elbow=vertical;" parent="wMq_7famFR51GRSwdipC-1" edge="1">
          <mxGeometry relative="1" as="geometry">
            <mxPoint x="1377" y="393" as="sourcePoint" />
            <mxPoint x="1570" y="393" as="targetPoint" />
          </mxGeometry>
        </mxCell>
        <mxCell id="AnVUDT3IRgTYin_r3TKA-3" value="rest：返回遥控结果" style="html=1;verticalAlign=bottom;endArrow=open;dashed=1;endSize=8;fontFamily=Helvetica;entryX=1.1;entryY=0.98;entryDx=0;entryDy=0;entryPerimeter=0;fontSize=12;" parent="wMq_7famFR51GRSwdipC-1" edge="1">
          <mxGeometry relative="1" as="geometry">
            <mxPoint x="1574" y="758" as="sourcePoint" />
            <mxPoint x="1375" y="758" as="targetPoint" />
          </mxGeometry>
        </mxCell>
        <mxCell id="AnVUDT3IRgTYin_r3TKA-4" value="根据解闭锁状态、标识牌操作判断能否遥控" style="html=1;verticalAlign=bottom;endArrow=block;labelBackgroundColor=none;fontFamily=Verdana;fontSize=12;elbow=vertical;edgeStyle=orthogonalEdgeStyle;curved=1;entryX=1;entryY=0.286;entryPerimeter=0;exitX=1.038;exitY=0.345;exitPerimeter=0;" parent="wMq_7famFR51GRSwdipC-1" edge="1">
          <mxGeometry relative="1" as="geometry">
            <mxPoint x="1370" y="303.9999999999999" as="sourcePoint" />
            <mxPoint x="1374.62" y="341.91999999999996" as="targetPoint" />
            <Array as="points">
              <mxPoint x="1424.62" y="303.9" />
              <mxPoint x="1424.62" y="341.9" />
            </Array>
          </mxGeometry>
        </mxCell>
      </root>
    </mxGraphModel>
  </diagram>
</mxfile>
